<svg width="40" height="30" viewBox="0 0 40 30" fill="none" xmlns="http://www.w3.org/2000/svg">
<g clip-path="url(#clip0_2364_4)">
<path d="M10.9697 0V2.28641C9.93594 2.28641 9.12078 2.42714 8.52875 2.70668C7.93672 2.98623 7.51703 3.41986 7.27203 4.008C7.02672 4.596 6.90313 5.34586 6.90313 6.25582V10.9249C6.90313 11.5323 6.8125 12.0855 6.62906 12.583C6.44578 13.0803 6.11 13.5083 5.61969 13.8668C5.12703 14.2255 4.43125 14.5012 3.52547 14.6959C3.41063 14.7191 3.28031 14.7382 3.15672 14.7595V15.12L3.40625 15.1606C3.44729 15.1676 3.48703 15.1753 3.52547 15.1835C4.43125 15.3783 5.12922 15.654 5.61969 16.0126C6.11 16.3711 6.44578 16.799 6.62906 17.2965C6.8125 17.7957 6.90313 18.3472 6.90313 18.9544V23.6235C6.90313 24.5355 7.02672 25.2815 7.27188 25.8656C7.51719 26.4498 7.93688 26.8835 8.52875 27.1669C9.12094 27.4503 9.93594 27.593 10.9697 27.593V29.8812C9.65766 29.8812 8.5575 29.756 7.665 29.5073C6.77281 29.2586 6.06141 28.8769 5.52469 28.3642C4.98781 27.8513 4.60344 27.2017 4.36719 26.4151C4.13094 25.6286 4.01375 24.6993 4.01375 23.6255V19.8914C4.01375 18.615 3.71547 17.7052 3.12344 17.1596C2.52922 16.614 1.48891 16.3422 0 16.3422V13.5409C1.48891 13.5409 2.53141 13.2691 3.12344 12.7235C3.71766 12.178 4.01375 11.268 4.01375 9.99177V6.25582C4.01375 5.18195 4.13078 4.25277 4.36719 3.46623C4.60359 2.67968 4.98781 2.03005 5.52469 1.51718C6.06141 1.00445 6.77266 0.622636 7.66516 0.374045C8.5575 0.125318 9.65969 0 10.9697 0ZM29.0305 0C30.3403 0 31.4427 0.125318 32.335 0.374045C33.2273 0.622773 33.9388 1.00445 34.4756 1.51718C35.01 2.02991 35.3967 2.67968 35.633 3.46623C35.8692 4.25277 35.9864 5.18195 35.9864 6.25582V9.99191C35.9864 11.2683 36.2825 12.1781 36.8767 12.7237C37.4686 13.2691 38.5113 13.541 40.0002 13.541V16.3403C38.5113 16.3403 37.4708 16.6121 36.8767 17.1577C36.2845 17.7031 35.9864 18.6132 35.9864 19.8895V23.6236C35.9864 24.6974 35.8694 25.6267 35.633 26.4132C35.3966 27.1998 35.0123 27.8494 34.4755 28.3621C33.9409 28.875 33.2275 29.2567 32.3348 29.5054C31.4427 29.7541 30.3425 29.8795 29.0305 29.8795V27.5911C30.0642 27.5911 30.8794 27.4484 31.4714 27.165C32.0634 26.8816 32.483 26.4479 32.7281 25.8638C32.9734 25.2796 33.097 24.5335 33.097 23.6216V18.9525C33.097 18.3453 33.1877 17.7938 33.3711 17.2946C33.5544 16.7971 33.8902 16.3692 34.3805 16.0106C34.8708 15.652 35.5689 15.3764 36.4747 15.1816C36.5895 15.1565 36.7198 15.1392 36.8434 15.118V14.7575L36.5939 14.716C36.554 14.7091 36.5143 14.7018 36.4747 14.6939C35.5689 14.5012 34.8731 14.2255 34.3805 13.8668C33.8902 13.5082 33.5544 13.0803 33.3711 12.583C33.1877 12.0855 33.097 11.5323 33.097 10.925V6.25582C33.097 5.34586 32.9734 4.596 32.7283 4.008C32.483 3.42 32.0633 2.98623 31.4714 2.70668C30.8792 2.42714 30.0642 2.28641 29.0305 2.28641V0ZM31.5111 14.9021C31.5111 15.0352 31.2195 15.3706 30.8661 15.6483C30.2739 16.1125 29.4077 16.8356 28.5898 17.5373L27.9906 18.0552L27.1919 18.7595C26.6709 19.2259 26.32 19.5586 26.32 19.6002C26.32 19.6735 26.943 20.6123 27.7073 21.688L28.9973 23.508C29.0253 23.5471 29.0379 23.5932 29.0331 23.6391C29.0283 23.6851 29.0064 23.7284 28.9708 23.7625L28.6638 23.9688C28.4319 24.1924 28.275 24.3678 28.2441 24.5876C28.2842 24.6858 28.1725 24.7471 28.0278 24.8059L27.8575 24.8727C27.3661 25.0722 26.9933 24.8625 25.6602 23.5189L25.0309 22.88C24.4003 22.2487 23.8678 21.7688 23.7888 21.767C23.5877 21.7632 21.3631 23.8857 19.6423 25.723C18.1248 27.3424 16.7884 27.3751 16.4017 27.0571C15.7502 26.5173 15.8452 25.594 16.647 24.6878L16.7513 24.5746C17.1444 24.1609 17.9859 23.3872 18.9438 22.5473L19.2636 22.2682L19.8355 21.7752C20.3877 21.3021 20.9478 20.836 21.5156 20.3772L22.2402 19.795L20.7619 17.0247C19.8689 15.3199 19.9453 15.1696 21.2381 15.0331L22.4456 14.9156L23.4948 16.2997C24.0714 17.0613 24.628 17.684 24.7275 17.684C24.82 17.684 25.7244 17.0557 26.7881 16.255L27.7842 15.5011C28.9863 14.6014 29.2347 14.4931 29.7197 14.5347L29.8588 14.5493C30.2375 14.5953 30.5772 14.5732 30.6975 14.4994L30.7248 14.478C30.928 14.266 31.5111 14.5803 31.5111 14.9021ZM25.5027 2.23432C26.4658 2.23432 26.6094 2.5275 26.6094 2.5275C23.3378 4.01755 20.57 6.67418 17.7116 11.567L17.2513 12.3679L15.4739 15.3841C15.3338 15.6064 15.3059 15.296 14.6795 14.5503L14.5727 14.4259C11.2331 10.0752 8.79906 9.25773 8.81359 9.18859C10.1038 8.46314 12.5205 9.17264 14.0136 10.3313L14.0689 10.3775L14.2167 10.49C14.4602 10.6808 14.5744 10.804 14.937 11.1563C14.9733 11.1563 15.3555 10.6298 15.7527 10.0688L16.6777 8.74473C20.0044 4.16604 23.4836 2.2305 25.5027 2.23432Z" fill="white"/>
</g>
<defs>
<clipPath id="clip0_2364_4">
<rect width="40" height="30" fill="white"/>
</clipPath>
</defs>
</svg>
