<svg width="48" height="48" viewBox="0 0 48 48" fill="none" xmlns="http://www.w3.org/2000/svg">
<path d="M10 6H14V10H10V20C10 21.0609 9.57857 22.0783 8.82843 22.8284C8.07828 23.5786 7.06087 24 6 24C7.06087 24 8.07828 24.4214 8.82843 25.1716C9.57857 25.9217 10 26.9391 10 28V38H14V42H10C7.86 41.46 6 40.2 6 38V30C6 28.9391 5.57857 27.9217 4.82843 27.1716C4.07828 26.4214 3.06087 26 2 26H0V22H2C3.06087 22 4.07828 21.5786 4.82843 20.8284C5.57857 20.0783 6 19.0609 6 18V10C6 8.93913 6.42143 7.92172 7.17157 7.17157C7.92172 6.42143 8.93913 6 10 6ZM38 6C39.0609 6 40.0783 6.42143 40.8284 7.17157C41.5786 7.92172 42 8.93913 42 10V18C42 19.0609 42.4214 20.0783 43.1716 20.8284C43.9217 21.5786 44.9391 22 46 22H48V26H46C44.9391 26 43.9217 26.4214 43.1716 27.1716C42.4214 27.9217 42 28.9391 42 30V38C42 39.0609 41.5786 40.0783 40.8284 40.8284C40.0783 41.5786 39.0609 42 38 42H34V38H38V28C38 26.9391 38.4214 25.9217 39.1716 25.1716C39.9217 24.4214 40.9391 24 42 24C40.9391 24 39.9217 23.5786 39.1716 22.8284C38.4214 22.0783 38 21.0609 38 20V10H34V6H38ZM24 30C24.5304 30 25.0391 30.2107 25.4142 30.5858C25.7893 30.9609 26 31.4696 26 32C26 32.5304 25.7893 33.0391 25.4142 33.4142C25.0391 33.7893 24.5304 34 24 34C23.4696 34 22.9609 33.7893 22.5858 33.4142C22.2107 33.0391 22 32.5304 22 32C22 31.4696 22.2107 30.9609 22.5858 30.5858C22.9609 30.2107 23.4696 30 24 30ZM16 30C16.5304 30 17.0391 30.2107 17.4142 30.5858C17.7893 30.9609 18 31.4696 18 32C18 32.5304 17.7893 33.0391 17.4142 33.4142C17.0391 33.7893 16.5304 34 16 34C15.4696 34 14.9609 33.7893 14.5858 33.4142C14.2107 33.0391 14 32.5304 14 32C14 31.4696 14.2107 30.9609 14.5858 30.5858C14.9609 30.2107 15.4696 30 16 30ZM32 30C32.5304 30 33.0391 30.2107 33.4142 30.5858C33.7893 30.9609 34 31.4696 34 32C34 32.5304 33.7893 33.0391 33.4142 33.4142C33.0391 33.7893 32.5304 34 32 34C31.4696 34 30.9609 33.7893 30.5858 33.4142C30.2107 33.0391 30 32.5304 30 32C30 31.4696 30.2107 30.9609 30.5858 30.5858C30.9609 30.2107 31.4696 30 32 30Z" fill="url(#paint0_linear_2304_342)"/>
<defs>
<linearGradient id="paint0_linear_2304_342" x1="-36.5" y1="24" x2="82.5" y2="24" gradientUnits="userSpaceOnUse">
<stop stop-color="#A2A3FF"/>
<stop offset="1" stop-color="white"/>
</linearGradient>
</defs>
</svg>
